<svg xmlns="http://www.w3.org/2000/svg" width="1380" height="760" viewBox="0 0 1380 760">
<rect x="0" y="0" width="100%" height="100%" fill="white"/>
<line x1="100" y1="600.00" x2="1340" y2="600.00" stroke="#dddddd" stroke-width="1"/>
<text x="92" y="600.00" font-size="8" font-family="Arial" text-anchor="end" dominant-baseline="middle">0.00</text>
<line x1="100" y1="520.00" x2="1340" y2="520.00" stroke="#dddddd" stroke-width="1"/>
<text x="92" y="520.00" font-size="8" font-family="Arial" text-anchor="end" dominant-baseline="middle">1.25</text>
<line x1="100" y1="440.00" x2="1340" y2="440.00" stroke="#dddddd" stroke-width="1"/>
<text x="92" y="440.00" font-size="8" font-family="Arial" text-anchor="end" dominant-baseline="middle">2.50</text>
<line x1="100" y1="360.00" x2="1340" y2="360.00" stroke="#dddddd" stroke-width="1"/>
<text x="92" y="360.00" font-size="8" font-family="Arial" text-anchor="end" dominant-baseline="middle">3.75</text>
<line x1="100" y1="280.00" x2="1340" y2="280.00" stroke="#dddddd" stroke-width="1"/>
<text x="92" y="280.00" font-size="8" font-family="Arial" text-anchor="end" dominant-baseline="middle">5.00</text>
<line x1="100" y1="200.00" x2="1340" y2="200.00" stroke="#dddddd" stroke-width="1"/>
<text x="92" y="200.00" font-size="8" font-family="Arial" text-anchor="end" dominant-baseline="middle">6.25</text>
<line x1="100" y1="120.00" x2="1340" y2="120.00" stroke="#dddddd" stroke-width="1"/>
<text x="92" y="120.00" font-size="8" font-family="Arial" text-anchor="end" dominant-baseline="middle">7.50</text>
<line x1="100" y1="600.00" x2="1340" y2="600.00" stroke="#111111" stroke-width="1.5"/>
<line x1="100" y1="120" x2="100" y2="600.00" stroke="#111111" stroke-width="1.5"/>
<rect x="205.67" y="558.75" width="34.00" height="41.25" fill="#111111" stroke="#222222" stroke-width="0.5"/>
<rect x="205.67" y="536.84" width="34.00" height="21.90" fill="#6D6D6D" stroke="#222222" stroke-width="0.5"/>
<rect x="205.67" y="536.02" width="34.00" height="0.82" fill="#BFBFBF" stroke="#222222" stroke-width="0.5"/>
<rect x="247.67" y="552.87" width="34.00" height="47.13" fill="#C00000" stroke="#222222" stroke-width="0.5"/>
<rect x="289.67" y="163.64" width="34.00" height="436.36" fill="#0B57D0" stroke="#222222" stroke-width="0.5"/>
<rect x="331.67" y="565.46" width="34.00" height="34.54" fill="#F28B82" stroke="#222222" stroke-width="0.5"/>
<rect x="373.67" y="250.73" width="34.00" height="349.27" fill="#8AB4F8" stroke="#222222" stroke-width="0.5"/>
<text x="306.67" y="628.00" font-size="8" font-family="Arial" text-anchor="middle">SIFT</text>
<rect x="619.00" y="546.22" width="34.00" height="53.78" fill="#111111" stroke="#222222" stroke-width="0.5"/>
<rect x="619.00" y="537.66" width="34.00" height="8.56" fill="#6D6D6D" stroke="#222222" stroke-width="0.5"/>
<rect x="619.00" y="536.02" width="34.00" height="1.64" fill="#BFBFBF" stroke="#222222" stroke-width="0.5"/>
<rect x="661.00" y="571.56" width="34.00" height="28.44" fill="#C00000" stroke="#222222" stroke-width="0.5"/>
<rect x="703.00" y="342.82" width="34.00" height="257.18" fill="#0B57D0" stroke="#222222" stroke-width="0.5"/>
<rect x="745.00" y="584.77" width="34.00" height="15.23" fill="#F28B82" stroke="#222222" stroke-width="0.5"/>
<rect x="787.00" y="473.04" width="34.00" height="126.96" fill="#8AB4F8" stroke="#222222" stroke-width="0.5"/>
<text x="720.00" y="628.00" font-size="8" font-family="Arial" text-anchor="middle">HNM</text>
<rect x="1032.33" y="550.92" width="34.00" height="49.08" fill="#111111" stroke="#222222" stroke-width="0.5"/>
<rect x="1032.33" y="536.86" width="34.00" height="14.07" fill="#6D6D6D" stroke="#222222" stroke-width="0.5"/>
<rect x="1032.33" y="536.02" width="34.00" height="0.84" fill="#BFBFBF" stroke="#222222" stroke-width="0.5"/>
<rect x="1074.33" y="549.92" width="34.00" height="50.08" fill="#C00000" stroke="#222222" stroke-width="0.5"/>
<rect x="1116.33" y="200.82" width="34.00" height="399.18" fill="#0B57D0" stroke="#222222" stroke-width="0.5"/>
<rect x="1158.33" y="582.73" width="34.00" height="17.27" fill="#F28B82" stroke="#222222" stroke-width="0.5"/>
<rect x="1200.33" y="409.10" width="34.00" height="190.90" fill="#8AB4F8" stroke="#222222" stroke-width="0.5"/>
<text x="1133.33" y="628.00" font-size="8" font-family="Arial" text-anchor="middle">LAION</text>
<text x="720.0" y="690" font-size="8" font-family="Arial" text-anchor="middle">Benchmark</text>
<text x="30" y="360.0" font-size="8" font-family="Arial" text-anchor="middle" transform="rotate(-90 30 360.0)">Normalized per-node latency to graph traversal</text>
<rect x="100" y="17" width="15" height="15" fill="#111111" stroke="#222222" stroke-width="0.5"/>
<text x="122" y="25" font-size="8" font-family="Arial" dominant-baseline="middle">Distance</text>
<rect x="390" y="17" width="15" height="15" fill="#6D6D6D" stroke="#222222" stroke-width="0.5"/>
<text x="412" y="25" font-size="8" font-family="Arial" dominant-baseline="middle">Traversal</text>
<rect x="680" y="17" width="15" height="15" fill="#BFBFBF" stroke="#222222" stroke-width="0.5"/>
<text x="702" y="25" font-size="8" font-family="Arial" dominant-baseline="middle">Candidate</text>
<rect x="970" y="17" width="15" height="15" fill="#C00000" stroke="#222222" stroke-width="0.5"/>
<text x="992" y="25" font-size="8" font-family="Arial" dominant-baseline="middle">N. LZ4</text>
<rect x="100" y="41" width="15" height="15" fill="#0B57D0" stroke="#222222" stroke-width="0.5"/>
<text x="122" y="49" font-size="8" font-family="Arial" dominant-baseline="middle">N. Deflate</text>
<rect x="390" y="41" width="15" height="15" fill="#F28B82" stroke="#222222" stroke-width="0.5"/>
<text x="412" y="49" font-size="8" font-family="Arial" dominant-baseline="middle">G. LZ4</text>
<rect x="680" y="41" width="15" height="15" fill="#8AB4F8" stroke="#222222" stroke-width="0.5"/>
<text x="702" y="49" font-size="8" font-family="Arial" dominant-baseline="middle">G. Deflate</text>
</svg>